<?xml version="1.0" encoding="UTF-8" standalone="no"?>
<!DOCTYPE svg PUBLIC "-//W3C//DTD SVG 1.1//EN"
 "http://www.w3.org/Graphics/SVG/1.1/DTD/svg11.dtd">
<!-- Generated by graphviz version 2.30.1 (20201013.1554)
 -->
<!-- Title: %3 Pages: 1 -->
<svg width="1525pt" height="332pt"
 viewBox="0.00 0.00 1524.62 332.00" xmlns="http://www.w3.org/2000/svg" xmlns:xlink="http://www.w3.org/1999/xlink">
<g id="graph0" class="graph" transform="scale(1 1) rotate(0) translate(4 328)">
<title>%3</title>
<polygon fill="white" stroke="white" points="-4,5 -4,-328 1521.62,-328 1521.62,5 -4,5"/>
<!-- [root] aws_instance.tf&#45;ec2&#45;1 (expand) -->
<g id="node1" class="node"><title>[root] aws_instance.tf&#45;ec2&#45;1 (expand)</title>
<polygon fill="none" stroke="black" points="553.874,-180 383.374,-180 383.374,-144 553.874,-144 553.874,-180"/>
<text text-anchor="middle" x="468.624" y="-158.3" font-family="Times,serif" font-size="14.00">aws_instance.tf&#45;ec2&#45;1</text>
</g>
<!-- [root] aws_security_group.tf&#45;sg&#45;1&#45;L (expand) -->
<g id="node2" class="node"><title>[root] aws_security_group.tf&#45;sg&#45;1&#45;L (expand)</title>
<polygon fill="none" stroke="black" points="1018.62,-108 794.624,-108 794.624,-72 1018.62,-72 1018.62,-108"/>
<text text-anchor="middle" x="906.624" y="-86.3" font-family="Times,serif" font-size="14.00">aws_security_group.tf&#45;sg&#45;1&#45;L</text>
</g>
<!-- [root] aws_instance.tf&#45;ec2&#45;1 (expand)&#45;&gt;[root] aws_security_group.tf&#45;sg&#45;1&#45;L (expand) -->
<g id="edge1" class="edge"><title>[root] aws_instance.tf&#45;ec2&#45;1 (expand)&#45;&gt;[root] aws_security_group.tf&#45;sg&#45;1&#45;L (expand)</title>
<path fill="none" stroke="black" d="M554.114,-147.337C621.285,-136.602 715.554,-121.536 789.707,-109.685"/>
<polygon fill="black" stroke="black" points="790.709,-113.07 800.032,-108.035 789.605,-106.157 790.709,-113.07"/>
</g>
<!-- [root] data.aws_ami.awsAmiData (expand) -->
<g id="node3" class="node"><title>[root] data.aws_ami.awsAmiData (expand)</title>
<polygon fill="none" stroke="black" points="456.874,-108 248.374,-108 248.374,-72 456.874,-72 456.874,-108"/>
<text text-anchor="middle" x="352.624" y="-86.3" font-family="Times,serif" font-size="14.00">data.aws_ami.awsAmiData</text>
</g>
<!-- [root] aws_instance.tf&#45;ec2&#45;1 (expand)&#45;&gt;[root] data.aws_ami.awsAmiData (expand) -->
<g id="edge2" class="edge"><title>[root] aws_instance.tf&#45;ec2&#45;1 (expand)&#45;&gt;[root] data.aws_ami.awsAmiData (expand)</title>
<path fill="none" stroke="black" d="M440.247,-143.876C425.08,-134.724 406.219,-123.342 389.885,-113.485"/>
<polygon fill="black" stroke="black" points="391.48,-110.36 381.11,-108.19 387.863,-116.353 391.48,-110.36"/>
</g>
<!-- [root] var.tag&#45;1 -->
<g id="node16" class="node"><title>[root] var.tag&#45;1</title>
<polygon fill="none" stroke="black" points="549.624,-108 475.624,-108 475.624,-72 555.624,-72 555.624,-102 549.624,-108"/>
<polyline fill="none" stroke="black" points="549.624,-108 549.624,-102 "/>
<polyline fill="none" stroke="black" points="555.624,-102 549.624,-102 "/>
<text text-anchor="middle" x="515.624" y="-86.3" font-family="Times,serif" font-size="14.00">var.tag&#45;1</text>
</g>
<!-- [root] aws_instance.tf&#45;ec2&#45;1 (expand)&#45;&gt;[root] var.tag&#45;1 -->
<g id="edge3" class="edge"><title>[root] aws_instance.tf&#45;ec2&#45;1 (expand)&#45;&gt;[root] var.tag&#45;1</title>
<path fill="none" stroke="black" d="M480.242,-143.697C485.763,-135.474 492.471,-125.483 498.556,-116.421"/>
<polygon fill="black" stroke="black" points="501.471,-118.358 504.139,-108.104 495.659,-114.456 501.471,-118.358"/>
</g>
<!-- [root] provider[&quot;registry.terraform.io/hashicorp/aws&quot;] -->
<g id="node11" class="node"><title>[root] provider[&quot;registry.terraform.io/hashicorp/aws&quot;]</title>
<polygon fill="none" stroke="black" points="376.624,-36 49.2938,-18 376.624,-3.55271e-15 703.954,-18 376.624,-36"/>
<text text-anchor="middle" x="376.624" y="-14.3" font-family="Times,serif" font-size="14.00">provider[&quot;registry.terraform.io/hashicorp/aws&quot;]</text>
</g>
<!-- [root] aws_security_group.tf&#45;sg&#45;1&#45;L (expand)&#45;&gt;[root] provider[&quot;registry.terraform.io/hashicorp/aws&quot;] -->
<g id="edge4" class="edge"><title>[root] aws_security_group.tf&#45;sg&#45;1&#45;L (expand)&#45;&gt;[root] provider[&quot;registry.terraform.io/hashicorp/aws&quot;]</title>
<path fill="none" stroke="black" d="M794.548,-74.1976C700.851,-61.8224 568.376,-44.3257 477.847,-32.3691"/>
<polygon fill="black" stroke="black" points="478.219,-28.888 467.847,-31.0484 477.303,-35.8277 478.219,-28.888"/>
</g>
<!-- [root] var.ports -->
<g id="node13" class="node"><title>[root] var.ports</title>
<polygon fill="none" stroke="black" points="1017.62,-36 943.624,-36 943.624,-0 1023.62,-0 1023.62,-30 1017.62,-36"/>
<polyline fill="none" stroke="black" points="1017.62,-36 1017.62,-30 "/>
<polyline fill="none" stroke="black" points="1023.62,-30 1017.62,-30 "/>
<text text-anchor="middle" x="983.624" y="-14.3" font-family="Times,serif" font-size="14.00">var.ports</text>
</g>
<!-- [root] aws_security_group.tf&#45;sg&#45;1&#45;L (expand)&#45;&gt;[root] var.ports -->
<g id="edge5" class="edge"><title>[root] aws_security_group.tf&#45;sg&#45;1&#45;L (expand)&#45;&gt;[root] var.ports</title>
<path fill="none" stroke="black" d="M925.658,-71.6966C935.169,-63.0503 946.83,-52.4486 957.194,-43.027"/>
<polygon fill="black" stroke="black" points="959.764,-45.4209 964.809,-36.1043 955.055,-40.2413 959.764,-45.4209"/>
</g>
<!-- [root] var.security&#45;group&#45;name -->
<g id="node15" class="node"><title>[root] var.security&#45;group&#45;name</title>
<polygon fill="none" stroke="black" points="918.874,-36 734.374,-36 734.374,-0 924.874,-0 924.874,-30 918.874,-36"/>
<polyline fill="none" stroke="black" points="918.874,-36 918.874,-30 "/>
<polyline fill="none" stroke="black" points="924.874,-30 918.874,-30 "/>
<text text-anchor="middle" x="829.624" y="-14.3" font-family="Times,serif" font-size="14.00">var.security&#45;group&#45;name</text>
</g>
<!-- [root] aws_security_group.tf&#45;sg&#45;1&#45;L (expand)&#45;&gt;[root] var.security&#45;group&#45;name -->
<g id="edge6" class="edge"><title>[root] aws_security_group.tf&#45;sg&#45;1&#45;L (expand)&#45;&gt;[root] var.security&#45;group&#45;name</title>
<path fill="none" stroke="black" d="M887.59,-71.6966C878.079,-63.0503 866.417,-52.4486 856.054,-43.027"/>
<polygon fill="black" stroke="black" points="858.192,-40.2413 848.439,-36.1043 853.484,-45.4209 858.192,-40.2413"/>
</g>
<!-- [root] data.aws_ami.awsAmiData (expand)&#45;&gt;[root] provider[&quot;registry.terraform.io/hashicorp/aws&quot;] -->
<g id="edge7" class="edge"><title>[root] data.aws_ami.awsAmiData (expand)&#45;&gt;[root] provider[&quot;registry.terraform.io/hashicorp/aws&quot;]</title>
<path fill="none" stroke="black" d="M358.556,-71.6966C361.23,-63.8979 364.449,-54.5085 367.425,-45.8292"/>
<polygon fill="black" stroke="black" points="370.827,-46.699 370.759,-36.1043 364.205,-44.4286 370.827,-46.699"/>
</g>
<!-- [root] output.AMI_ID -->
<g id="node4" class="node"><title>[root] output.AMI_ID</title>
<polygon fill="none" stroke="black" points="201.624,-180 83.6238,-180 83.6238,-144 207.624,-144 207.624,-174 201.624,-180"/>
<polyline fill="none" stroke="black" points="201.624,-180 201.624,-174 "/>
<polyline fill="none" stroke="black" points="207.624,-174 201.624,-174 "/>
<text text-anchor="middle" x="145.624" y="-158.3" font-family="Times,serif" font-size="14.00">output.AMI_ID</text>
</g>
<!-- [root] output.AMI_ID&#45;&gt;[root] data.aws_ami.awsAmiData (expand) -->
<g id="edge8" class="edge"><title>[root] output.AMI_ID&#45;&gt;[root] data.aws_ami.awsAmiData (expand)</title>
<path fill="none" stroke="black" d="M195.997,-143.966C225.045,-134.142 261.754,-121.729 292.33,-111.389"/>
<polygon fill="black" stroke="black" points="293.673,-114.63 302.025,-108.111 291.43,-107.999 293.673,-114.63"/>
</g>
<!-- [root] output.SG&#45;name -->
<g id="node5" class="node"><title>[root] output.SG&#45;name</title>
<polygon fill="none" stroke="black" points="1459.87,-180 1333.37,-180 1333.37,-144 1465.87,-144 1465.87,-174 1459.87,-180"/>
<polyline fill="none" stroke="black" points="1459.87,-180 1459.87,-174 "/>
<polyline fill="none" stroke="black" points="1465.87,-174 1459.87,-174 "/>
<text text-anchor="middle" x="1399.62" y="-158.3" font-family="Times,serif" font-size="14.00">output.SG&#45;name</text>
</g>
<!-- [root] output.SG&#45;name&#45;&gt;[root] aws_security_group.tf&#45;sg&#45;1&#45;L (expand) -->
<g id="edge9" class="edge"><title>[root] output.SG&#45;name&#45;&gt;[root] aws_security_group.tf&#45;sg&#45;1&#45;L (expand)</title>
<path fill="none" stroke="black" d="M1332.97,-145.719C1329.81,-145.113 1326.69,-144.536 1323.62,-144 1225.02,-126.744 1112.35,-112.763 1029.01,-103.503"/>
<polygon fill="black" stroke="black" points="1029.32,-100.015 1019,-102.397 1028.55,-106.973 1029.32,-100.015"/>
</g>
<!-- [root] output.instance&#45;id -->
<g id="node6" class="node"><title>[root] output.instance&#45;id</title>
<polygon fill="none" stroke="black" points="157.874,-252 17.3738,-252 17.3738,-216 163.874,-216 163.874,-246 157.874,-252"/>
<polyline fill="none" stroke="black" points="157.874,-252 157.874,-246 "/>
<polyline fill="none" stroke="black" points="163.874,-246 157.874,-246 "/>
<text text-anchor="middle" x="90.6238" y="-230.3" font-family="Times,serif" font-size="14.00">output.instance&#45;id</text>
</g>
<!-- [root] output.instance&#45;id&#45;&gt;[root] aws_instance.tf&#45;ec2&#45;1 (expand) -->
<g id="edge10" class="edge"><title>[root] output.instance&#45;id&#45;&gt;[root] aws_instance.tf&#45;ec2&#45;1 (expand)</title>
<path fill="none" stroke="black" d="M163.925,-217.886C167.201,-217.242 170.446,-216.611 173.624,-216 240.285,-203.187 315.612,-189.67 373.462,-179.493"/>
<polygon fill="black" stroke="black" points="374.078,-182.939 383.321,-177.761 372.866,-176.044 374.078,-182.939"/>
</g>
<!-- [root] output.instance&#45;public&#45;ip -->
<g id="node7" class="node"><title>[root] output.instance&#45;public&#45;ip</title>
<polygon fill="none" stroke="black" points="372.624,-252 182.624,-252 182.624,-216 378.624,-216 378.624,-246 372.624,-252"/>
<polyline fill="none" stroke="black" points="372.624,-252 372.624,-246 "/>
<polyline fill="none" stroke="black" points="378.624,-246 372.624,-246 "/>
<text text-anchor="middle" x="280.624" y="-230.3" font-family="Times,serif" font-size="14.00">output.instance&#45;public&#45;ip</text>
</g>
<!-- [root] output.instance&#45;public&#45;ip&#45;&gt;[root] aws_instance.tf&#45;ec2&#45;1 (expand) -->
<g id="edge11" class="edge"><title>[root] output.instance&#45;public&#45;ip&#45;&gt;[root] aws_instance.tf&#45;ec2&#45;1 (expand)</title>
<path fill="none" stroke="black" d="M326.614,-215.876C352.771,-206.137 385.709,-193.872 413.276,-183.608"/>
<polygon fill="black" stroke="black" points="414.633,-186.838 422.783,-180.068 412.19,-180.278 414.633,-186.838"/>
</g>
<!-- [root] output.key&#45;pair&#45;name -->
<g id="node8" class="node"><title>[root] output.key&#45;pair&#45;name</title>
<polygon fill="none" stroke="black" points="1365.62,-252 1201.62,-252 1201.62,-216 1371.62,-216 1371.62,-246 1365.62,-252"/>
<polyline fill="none" stroke="black" points="1365.62,-252 1365.62,-246 "/>
<polyline fill="none" stroke="black" points="1371.62,-246 1365.62,-246 "/>
<text text-anchor="middle" x="1286.62" y="-230.3" font-family="Times,serif" font-size="14.00">output.key&#45;pair&#45;name</text>
</g>
<!-- [root] var.keyName -->
<g id="node12" class="node"><title>[root] var.keyName</title>
<polygon fill="none" stroke="black" points="1308.87,-180 1204.37,-180 1204.37,-144 1314.87,-144 1314.87,-174 1308.87,-180"/>
<polyline fill="none" stroke="black" points="1308.87,-180 1308.87,-174 "/>
<polyline fill="none" stroke="black" points="1314.87,-174 1308.87,-174 "/>
<text text-anchor="middle" x="1259.62" y="-158.3" font-family="Times,serif" font-size="14.00">var.keyName</text>
</g>
<!-- [root] output.key&#45;pair&#45;name&#45;&gt;[root] var.keyName -->
<g id="edge12" class="edge"><title>[root] output.key&#45;pair&#45;name&#45;&gt;[root] var.keyName</title>
<path fill="none" stroke="black" d="M1279.95,-215.697C1276.91,-207.813 1273.24,-198.304 1269.86,-189.546"/>
<polygon fill="black" stroke="black" points="1273.09,-188.175 1266.22,-180.104 1266.55,-190.694 1273.09,-188.175"/>
</g>
<!-- [root] output.public&#45;dns -->
<g id="node9" class="node"><title>[root] output.public&#45;dns</title>
<polygon fill="none" stroke="black" points="533.874,-252 397.374,-252 397.374,-216 539.874,-216 539.874,-246 533.874,-252"/>
<polyline fill="none" stroke="black" points="533.874,-252 533.874,-246 "/>
<polyline fill="none" stroke="black" points="539.874,-246 533.874,-246 "/>
<text text-anchor="middle" x="468.624" y="-230.3" font-family="Times,serif" font-size="14.00">output.public&#45;dns</text>
</g>
<!-- [root] output.public&#45;dns&#45;&gt;[root] aws_instance.tf&#45;ec2&#45;1 (expand) -->
<g id="edge13" class="edge"><title>[root] output.public&#45;dns&#45;&gt;[root] aws_instance.tf&#45;ec2&#45;1 (expand)</title>
<path fill="none" stroke="black" d="M468.624,-215.697C468.624,-207.983 468.624,-198.712 468.624,-190.112"/>
<polygon fill="black" stroke="black" points="472.124,-190.104 468.624,-180.104 465.124,-190.104 472.124,-190.104"/>
</g>
<!-- [root] output.security&#45;group&#45;id -->
<g id="node10" class="node"><title>[root] output.security&#45;group&#45;id</title>
<polygon fill="none" stroke="black" points="1167.87,-180 983.374,-180 983.374,-144 1173.87,-144 1173.87,-174 1167.87,-180"/>
<polyline fill="none" stroke="black" points="1167.87,-180 1167.87,-174 "/>
<polyline fill="none" stroke="black" points="1173.87,-174 1167.87,-174 "/>
<text text-anchor="middle" x="1078.62" y="-158.3" font-family="Times,serif" font-size="14.00">output.security&#45;group&#45;id</text>
</g>
<!-- [root] output.security&#45;group&#45;id&#45;&gt;[root] aws_security_group.tf&#45;sg&#45;1&#45;L (expand) -->
<g id="edge14" class="edge"><title>[root] output.security&#45;group&#45;id&#45;&gt;[root] aws_security_group.tf&#45;sg&#45;1&#45;L (expand)</title>
<path fill="none" stroke="black" d="M1036.55,-143.876C1012.83,-134.222 983.008,-122.087 957.923,-111.878"/>
<polygon fill="black" stroke="black" points="959.145,-108.596 948.563,-108.068 956.506,-115.08 959.145,-108.596"/>
</g>
<!-- [root] var.region -->
<g id="node14" class="node"><title>[root] var.region</title>
<polygon fill="none" stroke="black" points="1510.87,-252 1428.37,-252 1428.37,-216 1516.87,-216 1516.87,-246 1510.87,-252"/>
<polyline fill="none" stroke="black" points="1510.87,-252 1510.87,-246 "/>
<polyline fill="none" stroke="black" points="1516.87,-246 1510.87,-246 "/>
<text text-anchor="middle" x="1472.62" y="-230.3" font-family="Times,serif" font-size="14.00">var.region</text>
</g>
<!-- [root] provider[&quot;registry.terraform.io/hashicorp/aws&quot;] (close) -->
<g id="node17" class="node"><title>[root] provider[&quot;registry.terraform.io/hashicorp/aws&quot;] (close)</title>
<ellipse fill="none" stroke="black" cx="851.624" cy="-234" rx="293.161" ry="18"/>
<text text-anchor="middle" x="851.624" y="-230.3" font-family="Times,serif" font-size="14.00">[root] provider[&quot;registry.terraform.io/hashicorp/aws&quot;] (close)</text>
</g>
<!-- [root] provider[&quot;registry.terraform.io/hashicorp/aws&quot;] (close)&#45;&gt;[root] aws_instance.tf&#45;ec2&#45;1 (expand) -->
<g id="edge15" class="edge"><title>[root] provider[&quot;registry.terraform.io/hashicorp/aws&quot;] (close)&#45;&gt;[root] aws_instance.tf&#45;ec2&#45;1 (expand)</title>
<path fill="none" stroke="black" d="M762.793,-216.765C703.24,-205.88 624.878,-191.558 564.008,-180.433"/>
<polygon fill="black" stroke="black" points="564.477,-176.961 554.01,-178.606 563.218,-183.847 564.477,-176.961"/>
</g>
<!-- [root] root -->
<g id="node18" class="node"><title>[root] root</title>
<ellipse fill="none" stroke="black" cx="851.624" cy="-306" rx="58.2422" ry="18"/>
<text text-anchor="middle" x="851.624" y="-302.3" font-family="Times,serif" font-size="14.00">[root] root</text>
</g>
<!-- [root] root&#45;&gt;[root] output.AMI_ID -->
<g id="edge16" class="edge"><title>[root] root&#45;&gt;[root] output.AMI_ID</title>
<path fill="none" stroke="black" d="M793.75,-303.518C607.562,-298.471 34.5414,-280.661 7.62381,-252 -3.32963,-240.337 -1.43757,-229.187 7.62381,-216 22.7649,-193.966 48.4343,-181.088 73.5564,-173.563"/>
<polygon fill="black" stroke="black" points="74.7843,-176.856 83.506,-170.84 72.9368,-170.104 74.7843,-176.856"/>
</g>
<!-- [root] root&#45;&gt;[root] output.SG&#45;name -->
<g id="edge17" class="edge"><title>[root] root&#45;&gt;[root] output.SG&#45;name</title>
<path fill="none" stroke="black" d="M909.115,-303.015C1038.9,-298.003 1346.02,-282.974 1380.62,-252 1397.59,-236.814 1401.47,-210.525 1401.63,-190.443"/>
<polygon fill="black" stroke="black" points="1405.13,-190.239 1401.41,-180.318 1398.13,-190.393 1405.13,-190.239"/>
</g>
<!-- [root] root&#45;&gt;[root] output.instance&#45;id -->
<g id="edge18" class="edge"><title>[root] root&#45;&gt;[root] output.instance&#45;id</title>
<path fill="none" stroke="black" d="M794.217,-302.916C678.72,-298.203 409.94,-284.606 174.435,-252.003"/>
<polygon fill="black" stroke="black" points="174.696,-248.505 164.308,-250.586 173.726,-255.438 174.696,-248.505"/>
</g>
<!-- [root] root&#45;&gt;[root] output.instance&#45;public&#45;ip -->
<g id="edge19" class="edge"><title>[root] root&#45;&gt;[root] output.instance&#45;public&#45;ip</title>
<path fill="none" stroke="black" d="M796.883,-299.532C711.864,-290.868 542.707,-272.939 388.951,-252.15"/>
<polygon fill="black" stroke="black" points="389.226,-248.655 378.846,-250.777 388.284,-255.592 389.226,-248.655"/>
</g>
<!-- [root] root&#45;&gt;[root] output.key&#45;pair&#45;name -->
<g id="edge20" class="edge"><title>[root] root&#45;&gt;[root] output.key&#45;pair&#45;name</title>
<path fill="none" stroke="black" d="M902.605,-297.179C968.472,-287.024 1086.67,-268.629 1187.62,-252 1188.91,-251.789 1190.2,-251.575 1191.5,-251.36"/>
<polygon fill="black" stroke="black" points="1192.29,-254.776 1201.58,-249.68 1191.14,-247.871 1192.29,-254.776"/>
</g>
<!-- [root] root&#45;&gt;[root] output.public&#45;dns -->
<g id="edge21" class="edge"><title>[root] root&#45;&gt;[root] output.public&#45;dns</title>
<path fill="none" stroke="black" d="M801.392,-296.786C743.261,-287.153 644.407,-270.379 550.118,-252.257"/>
<polygon fill="black" stroke="black" points="550.609,-248.787 540.127,-250.328 549.282,-255.661 550.609,-248.787"/>
</g>
<!-- [root] root&#45;&gt;[root] output.security&#45;group&#45;id -->
<g id="edge22" class="edge"><title>[root] root&#45;&gt;[root] output.security&#45;group&#45;id</title>
<path fill="none" stroke="black" d="M909.499,-303.372C988.299,-299.796 1123.07,-288.382 1153.62,-252 1163.91,-239.747 1160.98,-230.208 1153.62,-216 1147.26,-203.702 1136.57,-193.648 1125.24,-185.731"/>
<polygon fill="black" stroke="black" points="1126.81,-182.576 1116.51,-180.091 1123.01,-188.456 1126.81,-182.576"/>
</g>
<!-- [root] root&#45;&gt;[root] provider[&quot;registry.terraform.io/hashicorp/aws&quot;] (close) -->
<g id="edge23" class="edge"><title>[root] root&#45;&gt;[root] provider[&quot;registry.terraform.io/hashicorp/aws&quot;] (close)</title>
<path fill="none" stroke="black" d="M851.624,-287.697C851.624,-279.983 851.624,-270.712 851.624,-262.112"/>
<polygon fill="black" stroke="black" points="855.124,-262.104 851.624,-252.104 848.124,-262.104 855.124,-262.104"/>
</g>
<!-- [root] root&#45;&gt;[root] var.region -->
<g id="edge24" class="edge"><title>[root] root&#45;&gt;[root] var.region</title>
<path fill="none" stroke="black" d="M909.157,-303.112C1011.46,-298.973 1231.4,-286.532 1413.62,-252 1415.1,-251.721 1416.59,-251.421 1418.08,-251.104"/>
<polygon fill="black" stroke="black" points="1419.11,-254.46 1428.06,-248.789 1417.52,-247.641 1419.11,-254.46"/>
</g>
</g>
</svg>
